<svg width="154" height="62" viewBox="0 0 154 62" fill="none" xmlns="http://www.w3.org/2000/svg">
<g clip-path="url(#clip0_4_2)">
<path d="M9.36 56C9.36 53.32 9.4 50.13 9.45 48.3H9.39C8.89 51.29 8.09 56.77 7.17 61.79H4.54C3.86 57.11 3.04 51.32 2.58 48.26H2.49C2.57 50.12 2.64 53.5 2.64 56.25V61.79H0V45.87H4.35C5.07 50.08 5.69 54.3 5.98 56.63H6C6.31 54.38 7.19 49.88 7.91 45.87H12.14V61.78H9.36V56Z" fill="white"/>
<path d="M17.11 57.87L16.43 61.78H13.5L16.88 45.87H20.73L24.16 61.78H21.11L20.41 57.87H17.11ZM19.95 55.31C19.46 52.49 19.04 50.21 18.8 48.58H18.72C18.56 50.02 18.08 52.61 17.59 55.31H19.95Z" fill="white"/>
<path d="M25.56 45.87H28.47V59.28H33.52L33.26 61.78H25.56V45.87Z" fill="white"/>
<path d="M34.84 45.87H37.75V59.28H42.8L42.54 61.78H34.84V45.87Z" fill="white"/>
<path d="M46.56 57.87L45.88 61.78H42.95L46.33 45.87H50.18L53.61 61.78H50.56L49.86 57.87H46.56ZM49.39 55.31C48.9 52.49 48.48 50.21 48.24 48.58H48.16C48 50.02 47.52 52.61 47.03 55.31H49.39Z" fill="white"/>
<path d="M55 45.87H59.05C63.01 45.87 64.41 48.26 64.41 52.77V54.32C64.41 58.94 63.16 61.79 58.89 61.79H55V45.87ZM57.93 59.39H58.83C60.81 59.39 61.41 57.95 61.41 54.4V52.72C61.41 49.7 60.89 48.3 58.84 48.3H57.93V59.39Z" fill="white"/>
<path d="M66.5 45.87H69.41V52.09H72.76V45.87H75.67V61.78H72.76V54.65H69.41V61.78H66.5V45.87Z" fill="white"/>
<path d="M81.15 45.87V61.78H78.24V45.87H81.15Z" fill="white"/>
<path d="M97.2 56C97.2 53.32 97.24 50.13 97.29 48.3H97.23C96.73 51.29 95.93 56.77 95.01 61.79H92.37C91.69 57.11 90.87 51.32 90.41 48.26H90.33C90.41 50.12 90.48 53.5 90.48 56.25V61.79H87.83V45.87H92.18C92.9 50.08 93.52 54.3 93.81 56.63H93.83C94.14 54.38 95.02 49.88 95.74 45.87H99.97V61.78H97.19V56H97.2Z" fill="white"/>
<path d="M111.87 52.8V54.67C111.87 59.84 110.32 62.05 106.86 62.05C103.63 62.05 102.04 59.85 102.04 54.65V52.77C102.04 47.66 103.93 45.62 107.01 45.62C110.22 45.62 111.87 47.86 111.87 52.8ZM105.01 52.68V54.71C105.01 57.75 105.51 59.57 106.94 59.57C108.45 59.57 108.89 57.89 108.89 54.7V52.67C108.89 49.72 108.45 48.11 106.94 48.11C105.48 48.12 105.01 49.8 105.01 52.68Z" fill="white"/>
<path d="M115.94 48.45H112.77V45.87H122.02V48.45H118.85V61.78H115.94V48.45Z" fill="white"/>
<path d="M132.76 52.8V54.67C132.76 59.84 131.21 62.05 127.75 62.05C124.52 62.05 122.93 59.85 122.93 54.65V52.77C122.93 47.66 124.82 45.62 127.9 45.62C131.12 45.62 132.76 47.86 132.76 52.8ZM125.91 52.68V54.71C125.91 57.75 126.41 59.57 127.84 59.57C129.35 59.57 129.79 57.89 129.79 54.7V52.67C129.79 49.72 129.35 48.11 127.84 48.11C126.38 48.12 125.91 49.8 125.91 52.68Z" fill="white"/>
<path d="M137.73 54.99V61.78H134.83V45.87H139.44C142.24 45.87 143.86 47.24 143.86 50.12V50.27C143.86 52.61 142.67 53.5 141.92 53.8C143.04 54.35 143.63 55.27 143.63 57.58V58.05C143.63 59.78 143.69 60.9 143.83 61.77H141.02C140.79 60.98 140.77 59.4 140.77 58.07V57.63C140.77 55.57 140.34 54.97 138.69 54.97H137.73V54.99ZM137.73 52.63H138.77C140.35 52.63 140.97 52.01 140.97 50.4V50.27C140.97 48.97 140.43 48.23 139.04 48.23H137.74V52.63H137.73Z" fill="white"/>
<path d="M147.93 57.23V57.48C148.03 58.71 148.48 59.73 149.76 59.73C151.01 59.73 151.41 58.84 151.41 57.81C151.41 56.45 150.84 55.77 148.92 54.72C146.43 53.4 145.4 52.32 145.4 49.95C145.4 47.47 146.81 45.62 149.74 45.62C153.24 45.62 154.01 48.01 154.05 50V50.22H151.19V50.02C151.12 49.05 150.9 47.95 149.69 47.95C148.71 47.95 148.3 48.62 148.3 49.67C148.3 50.75 148.71 51.27 150.44 52.16C153.19 53.6 154.36 54.81 154.36 57.51C154.36 59.95 152.98 62.06 149.66 62.06C146.11 62.06 145.09 59.8 145.02 57.48V57.24H147.93V57.23Z" fill="white"/>
<path d="M50.77 8.92V0H57.17V3.79L50.77 8.92Z" fill="white"/>
<path d="M102.88 8.92V0H96.48V3.79L102.88 8.92Z" fill="white"/>
<path d="M102.88 23.56L85.43 8.85L50.77 37.9H40.05L85.3 0L102.88 14.71V23.56Z" fill="white"/>
<path d="M95.47 37.9H84.97L76.95 31.15L68.88 37.9H58.18L76.82 22.29L95.47 37.9Z" fill="white"/>
<path d="M50.77 23.56L68.22 8.85L102.88 37.9H113.6L68.35 0L50.77 14.71V23.56Z" fill="white"/>
</g>
<defs>
<clipPath id="clip0_4_2">
<rect width="154" height="62" fill="white"/>
</clipPath>
</defs>
</svg>
